<?xml version="1.0" encoding="UTF-8"?>
<svg id="Layer_2" data-name="Layer 2" xmlns="http://www.w3.org/2000/svg" viewBox="0 0 48 48">
  <defs>
    <style>
      .cls-1 {
        fill: #242938;
      }

      .cls-2 {
        fill: #2088ff;
      }

      .cls-3 {
        fill: #79b8ff;
      }
    </style>
  </defs>
  <g id="Layer_1-2" data-name="Layer 1">
    <rect class="cls-1" width="48" height="48" rx="11.25" ry="11.25"/>
    <g>
      <path class="cls-2" d="M13.79,6.5c-4.02,0-7.29,3.27-7.29,7.29,0,3.52,2.51,6.47,5.83,7.14v10.36c0,3.22,2.65,5.83,5.83,5.83h.05c.36,2.47,2.49,4.38,5.05,4.38,2.81,0,5.1-2.29,5.1-5.1s-2.29-5.1-5.1-5.1c-2.56,0-4.69,1.91-5.05,4.38h-.05c-2.39,0-4.38-1.96-4.38-4.38v-7.35c.95.97,2.26,1.52,3.62,1.52h.81c.36,2.47,2.49,4.38,5.05,4.38s4.69-1.91,5.05-4.38h3.02c.36,2.47,2.49,4.38,5.05,4.38,2.81,0,5.1-2.29,5.1-5.1s-2.29-5.1-5.1-5.1c-2.56,0-4.7,1.91-5.05,4.38h-3.02c-.36-2.47-2.49-4.38-5.05-4.38s-4.7,1.91-5.05,4.38h-.81c-1.76,0-3.22-1.25-3.55-2.92,3.99-.04,7.22-3.29,7.22-7.29s-3.27-7.29-7.29-7.29ZM13.79,7.96c3.22,0,5.83,2.6,5.83,5.81,0,0,0,.01,0,.02,0,3.22-2.6,5.83-5.81,5.83,0,0-.01,0-.02,0-3.22,0-5.83-2.6-5.83-5.81,0,0,0-.01,0-.02,0-3.22,2.59-5.83,5.81-5.83,0,0,.02,0,.02,0ZM12.37,10.02c-.76,0-1.49.61-1.49,1.45v4.66c0,1.11,1.29,1.82,2.23,1.24l3.73-2.31c.89-.55.9-1.91,0-2.47l-3.73-2.35c-.22-.14-.48-.21-.75-.21ZM12.33,11.47l3.73,2.35-3.73,2.31s0-4.66,0-4.66ZM23.27,21.08c2.01,0,3.64,1.62,3.65,3.62,0,0,0,.02,0,.02,0,2.01-1.62,3.64-3.62,3.65,0,0-.01,0-.02,0-2.01,0-3.64-1.62-3.65-3.62,0,0,0-.01,0-.02,0-2.01,1.62-3.64,3.62-3.65,0,0,.01,0,.02,0ZM36.4,21.08c2.01,0,3.64,1.62,3.65,3.62,0,0,0,.02,0,.02,0,2.01-1.62,3.64-3.62,3.65,0,0-.01,0-.02,0-2.01,0-3.64-1.62-3.65-3.62,0,0,0-.01,0-.02,0-2.01,1.62-3.64,3.62-3.65,0,0,.01,0,.02,0ZM24.76,22.98c-.19,0-.38.08-.52.21l-1.72,1.72-.57-.57c-.29-.28-.75-.28-1.03,0-.28.29-.28.75,0,1.03,0,0,0,0,0,0l1.09,1.08c.28.28.75.28,1.03,0l2.24-2.24c.28-.28.29-.75,0-1.03,0,0,0,0,0,0-.14-.14-.32-.21-.52-.21h0ZM37.88,22.98c-.19,0-.38.08-.52.21l-1.72,1.72-.57-.57c-.29-.28-.75-.28-1.03,0-.28.29-.28.75,0,1.03h0s1.09,1.08,1.09,1.08c.28.28.75.28,1.03,0l2.24-2.24c.28-.28.29-.75,0-1.03,0,0,0,0,0,0-.14-.14-.32-.21-.52-.21h0ZM23.27,32.75c2.01,0,3.64,1.62,3.65,3.62,0,0,0,.01,0,.02,0,2.01-1.62,3.64-3.62,3.65,0,0-.02,0-.02,0-2.01,0-3.64-1.62-3.65-3.62,0,0,0-.01,0-.02,0-2.01,1.62-3.64,3.62-3.65,0,0,.01,0,.02,0ZM21.81,35.3c-.6,0-1.09.49-1.09,1.09s.49,1.09,1.09,1.09,1.09-.49,1.09-1.09-.49-1.09-1.09-1.09ZM24.73,35.3c-.6,0-1.09.49-1.09,1.09s.49,1.09,1.09,1.09,1.09-.49,1.09-1.09-.49-1.09-1.09-1.09ZM21.81,36.03c.21,0,.36.16.36.36s-.16.36-.36.36-.36-.16-.36-.36.16-.36.36-.36ZM24.73,36.03c.21,0,.36.16.36.36s-.16.36-.36.36-.36-.16-.36-.36.16-.36.36-.36Z"/>
      <path class="cls-3" d="M36.4,31.29c-2.57,0-4.7,1.91-5.05,4.38-.02,0-.05,0-.07,0l-.74.02c-.4.01-.72.35-.7.75.01.4.35.72.75.7l.74-.02s.02,0,.03,0c.36,2.47,2.49,4.37,5.05,4.37,2.81,0,5.1-2.29,5.1-5.1s-2.29-5.1-5.1-5.1ZM36.4,32.75c2.01,0,3.64,1.62,3.65,3.62,0,0,0,.01,0,.02,0,2.01-1.62,3.64-3.62,3.65,0,0-.02,0-.02,0-2.01,0-3.64-1.62-3.65-3.62,0,0,0-.01,0-.02,0-2.01,1.62-3.64,3.62-3.65,0,0,.01,0,.02,0Z"/>
    </g>
  </g>
</svg>